<mxfile host="app.diagrams.net" modified="2023-12-27T16:09:51.036Z" agent="Mozilla/5.0 (X11; Linux x86_64) AppleWebKit/537.36 (KHTML, like Gecko) Chrome/120.0.0.0 Safari/537.36" etag="ZD6wjgMDMFX6cCGs8i_d" version="22.1.13" type="github">
  <diagram name="Page-1" id="cc9SVtuZvTOHyXBjHd1u">
    <mxGraphModel dx="2049" dy="2282" grid="1" gridSize="10" guides="1" tooltips="1" connect="1" arrows="1" fold="1" page="1" pageScale="1" pageWidth="827" pageHeight="1169" math="0" shadow="0">
      <root>
        <mxCell id="0" />
        <mxCell id="1" parent="0" />
        <mxCell id="cq845K4-0NDsHjAoLR2O-6" value="" style="group;fillColor=#dae8fc;strokeColor=#6c8ebf;" parent="1" vertex="1" connectable="0">
          <mxGeometry x="40" y="440" width="680" height="240" as="geometry" />
        </mxCell>
        <mxCell id="cq845K4-0NDsHjAoLR2O-1" value="" style="rounded=0;whiteSpace=wrap;html=1;fillColor=#dae8fc;strokeColor=#6c8ebf;" parent="cq845K4-0NDsHjAoLR2O-6" vertex="1">
          <mxGeometry width="680" height="240" as="geometry" />
        </mxCell>
        <mxCell id="cq845K4-0NDsHjAoLR2O-2" value="Phone" style="rounded=0;whiteSpace=wrap;html=1;" parent="cq845K4-0NDsHjAoLR2O-6" vertex="1">
          <mxGeometry x="80" y="73.84615384615385" width="120" height="55.38461538461539" as="geometry" />
        </mxCell>
        <mxCell id="cq845K4-0NDsHjAoLR2O-3" value="Tablet" style="rounded=0;whiteSpace=wrap;html=1;" parent="cq845K4-0NDsHjAoLR2O-6" vertex="1">
          <mxGeometry x="280" y="73.84615384615385" width="120" height="55.38461538461539" as="geometry" />
        </mxCell>
        <mxCell id="cq845K4-0NDsHjAoLR2O-4" value="Web" style="rounded=0;whiteSpace=wrap;html=1;" parent="cq845K4-0NDsHjAoLR2O-6" vertex="1">
          <mxGeometry x="480" y="73.84615384615385" width="120" height="55.38461538461539" as="geometry" />
        </mxCell>
        <mxCell id="cq845K4-0NDsHjAoLR2O-29" value="&lt;h1&gt;App Module&lt;/h1&gt;&lt;div&gt;Contains the single activity, code related to the form factor and the screen navigation&lt;/div&gt;" style="text;html=1;strokeColor=none;fillColor=none;spacing=5;spacingTop=-20;whiteSpace=wrap;overflow=hidden;rounded=0;" parent="cq845K4-0NDsHjAoLR2O-6" vertex="1">
          <mxGeometry x="245" y="142" width="190" height="96" as="geometry" />
        </mxCell>
        <mxCell id="cq845K4-0NDsHjAoLR2O-21" value="" style="group;fillColor=#dae8fc;strokeColor=#6c8ebf;" parent="1" vertex="1" connectable="0">
          <mxGeometry x="1560" y="440" width="680" height="240" as="geometry" />
        </mxCell>
        <mxCell id="cq845K4-0NDsHjAoLR2O-22" value="" style="rounded=0;whiteSpace=wrap;html=1;fillColor=#dae8fc;strokeColor=#6c8ebf;" parent="cq845K4-0NDsHjAoLR2O-21" vertex="1">
          <mxGeometry width="680" height="240" as="geometry" />
        </mxCell>
        <mxCell id="cq845K4-0NDsHjAoLR2O-23" value="Usecases" style="rounded=0;whiteSpace=wrap;html=1;" parent="cq845K4-0NDsHjAoLR2O-21" vertex="1">
          <mxGeometry x="80" y="80" width="120" height="60" as="geometry" />
        </mxCell>
        <mxCell id="cq845K4-0NDsHjAoLR2O-24" value="Repositories" style="rounded=0;whiteSpace=wrap;html=1;" parent="cq845K4-0NDsHjAoLR2O-21" vertex="1">
          <mxGeometry x="280" y="80" width="120" height="60" as="geometry" />
        </mxCell>
        <mxCell id="cq845K4-0NDsHjAoLR2O-25" value="Data Sources" style="rounded=0;whiteSpace=wrap;html=1;" parent="cq845K4-0NDsHjAoLR2O-21" vertex="1">
          <mxGeometry x="480" y="80" width="120" height="60" as="geometry" />
        </mxCell>
        <mxCell id="cq845K4-0NDsHjAoLR2O-31" value="&lt;h1&gt;Core Module&lt;/h1&gt;&lt;p&gt;Contains Usecase, Repository and DataSource&lt;/p&gt;" style="text;html=1;strokeColor=none;fillColor=none;spacing=5;spacingTop=-20;whiteSpace=wrap;overflow=hidden;rounded=0;" parent="cq845K4-0NDsHjAoLR2O-21" vertex="1">
          <mxGeometry x="245" y="150" width="190" height="90" as="geometry" />
        </mxCell>
        <mxCell id="cq845K4-0NDsHjAoLR2O-39" value="" style="group;fillColor=#dae8fc;strokeColor=#6c8ebf;" parent="1" vertex="1" connectable="0">
          <mxGeometry x="1560" y="-440" width="680" height="240" as="geometry" />
        </mxCell>
        <mxCell id="cq845K4-0NDsHjAoLR2O-40" value="" style="rounded=0;whiteSpace=wrap;html=1;fillColor=#dae8fc;strokeColor=#6c8ebf;" parent="cq845K4-0NDsHjAoLR2O-39" vertex="1">
          <mxGeometry width="680" height="240" as="geometry" />
        </mxCell>
        <mxCell id="cq845K4-0NDsHjAoLR2O-44" value="&lt;h1&gt;Utility Module&lt;/h1&gt;&lt;p&gt;Contains commonly used utility functions for all the modules.&lt;/p&gt;" style="text;html=1;strokeColor=none;fillColor=none;spacing=5;spacingTop=-20;whiteSpace=wrap;overflow=hidden;rounded=0;" parent="cq845K4-0NDsHjAoLR2O-39" vertex="1">
          <mxGeometry x="245" y="150" width="190" height="90" as="geometry" />
        </mxCell>
        <mxCell id="cq845K4-0NDsHjAoLR2O-45" value="" style="group;fillColor=#dae8fc;strokeColor=#6c8ebf;" parent="1" vertex="1" connectable="0">
          <mxGeometry x="800" y="-440" width="680" height="240" as="geometry" />
        </mxCell>
        <mxCell id="cq845K4-0NDsHjAoLR2O-46" value="" style="rounded=0;whiteSpace=wrap;html=1;fillColor=#dae8fc;strokeColor=#6c8ebf;" parent="cq845K4-0NDsHjAoLR2O-45" vertex="1">
          <mxGeometry width="680" height="240" as="geometry" />
        </mxCell>
        <mxCell id="cq845K4-0NDsHjAoLR2O-47" value="&lt;h1&gt;buildSrc Module&lt;/h1&gt;&lt;p&gt;Contains gradle and kotlin dsl for all the modules. It contains libraries, version catalogs and common gradle configs&lt;/p&gt;" style="text;html=1;strokeColor=none;fillColor=none;spacing=5;spacingTop=-20;whiteSpace=wrap;overflow=hidden;rounded=0;" parent="cq845K4-0NDsHjAoLR2O-45" vertex="1">
          <mxGeometry x="245" y="98" width="190" height="142" as="geometry" />
        </mxCell>
        <mxCell id="cq845K4-0NDsHjAoLR2O-48" style="rounded=0;orthogonalLoop=1;jettySize=auto;html=1;exitX=0.5;exitY=1;exitDx=0;exitDy=0;entryX=0.5;entryY=0;entryDx=0;entryDy=0;edgeStyle=orthogonalEdgeStyle;curved=1;startArrow=block;startFill=1;endArrow=none;endFill=0;dashed=1;fillColor=#f8cecc;strokeColor=#b85450;shadow=1;strokeWidth=5;" parent="1" source="cq845K4-0NDsHjAoLR2O-47" target="cq845K4-0NDsHjAoLR2O-1" edge="1">
          <mxGeometry relative="1" as="geometry" />
        </mxCell>
        <mxCell id="cq845K4-0NDsHjAoLR2O-49" style="edgeStyle=orthogonalEdgeStyle;rounded=0;orthogonalLoop=1;jettySize=auto;html=1;exitX=0.5;exitY=1;exitDx=0;exitDy=0;entryX=0.5;entryY=0;entryDx=0;entryDy=0;curved=1;dashed=1;startArrow=classic;startFill=1;endArrow=none;endFill=0;fillColor=#f8cecc;strokeColor=#b85450;strokeWidth=5;shadow=1;" parent="1" source="cq845K4-0NDsHjAoLR2O-47" target="cq845K4-0NDsHjAoLR2O-9" edge="1">
          <mxGeometry relative="1" as="geometry" />
        </mxCell>
        <mxCell id="cq845K4-0NDsHjAoLR2O-8" value="" style="group" parent="1" vertex="1" connectable="0">
          <mxGeometry x="800" y="430" width="680" height="250" as="geometry" />
        </mxCell>
        <mxCell id="cq845K4-0NDsHjAoLR2O-9" value="" style="rounded=0;whiteSpace=wrap;html=1;fillColor=#d5e8d4;strokeColor=#82b366;" parent="cq845K4-0NDsHjAoLR2O-8" vertex="1">
          <mxGeometry width="680" height="250" as="geometry" />
        </mxCell>
        <mxCell id="cq845K4-0NDsHjAoLR2O-10" value="Login" style="rounded=0;whiteSpace=wrap;html=1;" parent="cq845K4-0NDsHjAoLR2O-8" vertex="1">
          <mxGeometry x="80" y="90" width="120" height="52.14" as="geometry" />
        </mxCell>
        <mxCell id="cq845K4-0NDsHjAoLR2O-14" value="Post Login" style="rounded=0;whiteSpace=wrap;html=1;" parent="cq845K4-0NDsHjAoLR2O-8" vertex="1">
          <mxGeometry x="480" y="90" width="120" height="52.14" as="geometry" />
        </mxCell>
        <mxCell id="cq845K4-0NDsHjAoLR2O-27" value="&lt;h1&gt;Feature Module&lt;/h1&gt;&lt;p&gt;Contains UI (Composables) and ViewModels&lt;/p&gt;" style="text;html=1;strokeColor=none;fillColor=none;spacing=5;spacingTop=-20;whiteSpace=wrap;overflow=hidden;rounded=0;" parent="cq845K4-0NDsHjAoLR2O-8" vertex="1">
          <mxGeometry x="245" y="162.38" width="190" height="85.63" as="geometry" />
        </mxCell>
        <mxCell id="cq845K4-0NDsHjAoLR2O-52" style="edgeStyle=orthogonalEdgeStyle;rounded=0;orthogonalLoop=1;jettySize=auto;html=1;exitX=0.5;exitY=0;exitDx=0;exitDy=0;entryX=0.5;entryY=1;entryDx=0;entryDy=0;curved=1;dashed=1;fillColor=#f8cecc;strokeColor=#b85450;strokeWidth=5;shadow=1;" parent="1" source="cq845K4-0NDsHjAoLR2O-22" target="cq845K4-0NDsHjAoLR2O-47" edge="1">
          <mxGeometry relative="1" as="geometry" />
        </mxCell>
        <mxCell id="cq845K4-0NDsHjAoLR2O-53" style="edgeStyle=orthogonalEdgeStyle;rounded=0;orthogonalLoop=1;jettySize=auto;html=1;exitX=0.5;exitY=0;exitDx=0;exitDy=0;entryX=0.5;entryY=1;entryDx=0;entryDy=0;curved=1;fillColor=#d5e8d4;strokeColor=#82b366;strokeWidth=5;shadow=1;" parent="1" source="cq845K4-0NDsHjAoLR2O-9" target="cq845K4-0NDsHjAoLR2O-44" edge="1">
          <mxGeometry relative="1" as="geometry" />
        </mxCell>
        <mxCell id="cq845K4-0NDsHjAoLR2O-54" style="edgeStyle=orthogonalEdgeStyle;rounded=0;orthogonalLoop=1;jettySize=auto;html=1;exitX=0.5;exitY=0;exitDx=0;exitDy=0;entryX=0.5;entryY=1;entryDx=0;entryDy=0;curved=1;fillColor=#d5e8d4;strokeColor=#82b366;strokeWidth=5;shadow=1;" parent="1" source="cq845K4-0NDsHjAoLR2O-22" target="cq845K4-0NDsHjAoLR2O-44" edge="1">
          <mxGeometry relative="1" as="geometry" />
        </mxCell>
        <mxCell id="cq845K4-0NDsHjAoLR2O-55" value="" style="group;" parent="1" vertex="1" connectable="0">
          <mxGeometry x="2240" y="-40" width="90" height="40" as="geometry" />
        </mxCell>
        <mxCell id="cq845K4-0NDsHjAoLR2O-36" value="" style="endArrow=classic;html=1;rounded=0;" parent="cq845K4-0NDsHjAoLR2O-55" edge="1">
          <mxGeometry width="50" height="50" relative="1" as="geometry">
            <mxPoint y="40" as="sourcePoint" />
            <mxPoint x="20" as="targetPoint" />
          </mxGeometry>
        </mxCell>
        <mxCell id="cq845K4-0NDsHjAoLR2O-38" value="&lt;h4&gt;Depends on utility&lt;/h4&gt;" style="text;html=1;strokeColor=none;fillColor=none;align=center;verticalAlign=middle;whiteSpace=wrap;rounded=0;" parent="cq845K4-0NDsHjAoLR2O-55" vertex="1">
          <mxGeometry x="30" y="10" width="60" height="30" as="geometry" />
        </mxCell>
        <mxCell id="cq845K4-0NDsHjAoLR2O-56" value="" style="group;" parent="1" vertex="1" connectable="0">
          <mxGeometry x="2240" y="40" width="90" height="40" as="geometry" />
        </mxCell>
        <mxCell id="cq845K4-0NDsHjAoLR2O-57" value="" style="endArrow=classic;html=1;rounded=0;dashed=1;" parent="cq845K4-0NDsHjAoLR2O-56" edge="1">
          <mxGeometry width="50" height="50" relative="1" as="geometry">
            <mxPoint y="40" as="sourcePoint" />
            <mxPoint x="20" as="targetPoint" />
          </mxGeometry>
        </mxCell>
        <mxCell id="cq845K4-0NDsHjAoLR2O-58" value="&lt;h4&gt;Depends on gradle script&lt;/h4&gt;" style="text;html=1;strokeColor=none;fillColor=none;align=center;verticalAlign=middle;whiteSpace=wrap;rounded=0;" parent="cq845K4-0NDsHjAoLR2O-56" vertex="1">
          <mxGeometry x="30" y="10" width="60" height="30" as="geometry" />
        </mxCell>
        <mxCell id="HW10eFchwnDjr-zvBBHw-1" style="edgeStyle=orthogonalEdgeStyle;rounded=0;orthogonalLoop=1;jettySize=auto;html=1;exitX=0.5;exitY=0;exitDx=0;exitDy=0;entryX=0.5;entryY=1;entryDx=0;entryDy=0;curved=1;fillColor=#d5e8d4;strokeColor=#82b366;shadow=1;strokeWidth=5;" edge="1" parent="1" source="cq845K4-0NDsHjAoLR2O-1" target="cq845K4-0NDsHjAoLR2O-44">
          <mxGeometry relative="1" as="geometry" />
        </mxCell>
      </root>
    </mxGraphModel>
  </diagram>
</mxfile>
